<!-- Generated by IcoMoon.io -->
<svg version="1.1" xmlns="http://www.w3.org/2000/svg" width="32" height="32" viewBox="0 0 32 32">
<title>brand</title>
<path fill="#8e8f99" d="M2.434 23.808c0.124 0.139 0.191 0.313 0.188 0.492 0.006 0.116-0.017 0.233-0.067 0.34s-0.127 0.203-0.224 0.28c-0.212 0.144-0.474 0.229-0.756 0.229-0.031 0-0.062-0.001-0.093-0.003l0.004 0h-1.486v-3.115h1.455c0.026-0.002 0.055-0.003 0.086-0.003 0.267 0 0.516 0.078 0.726 0.213l-0.005-0.003c0.094 0.071 0.169 0.16 0.217 0.262s0.071 0.211 0.065 0.322c0.009 0.172-0.051 0.34-0.169 0.476-0.115 0.123-0.266 0.21-0.437 0.243l-0.005 0.001c0.197 0.032 0.375 0.127 0.502 0.266zM0.691 23.338h0.622c0.141 0.010 0.281-0.027 0.395-0.103 0.045-0.037 0.082-0.083 0.106-0.136l0.001-0.002c0.018-0.040 0.028-0.086 0.028-0.135 0-0.011-0.001-0.022-0.002-0.033l0 0.001c0.001-0.008 0.001-0.017 0.001-0.026 0-0.050-0.011-0.098-0.030-0.141l0.001 0.002c-0.024-0.055-0.060-0.102-0.103-0.139l-0.001-0c-0.101-0.067-0.224-0.107-0.357-0.107-0.018 0-0.035 0.001-0.053 0.002l0.002-0h-0.613v0.817zM1.77 24.533c0.049-0.038 0.087-0.085 0.114-0.14l0.001-0.002c0.021-0.044 0.033-0.095 0.033-0.15 0-0.008-0-0.017-0.001-0.025l0 0.001c0-0.007 0.001-0.014 0.001-0.022 0-0.056-0.013-0.109-0.036-0.156l0.001 0.002c-0.028-0.058-0.068-0.106-0.116-0.143l-0.001-0.001c-0.107-0.071-0.239-0.114-0.381-0.114-0.014 0-0.029 0-0.043 0.001l0.002-0h-0.653v0.857h0.661c0.149 0.008 0.296-0.030 0.418-0.108zM5.409 25.148l-0.81-1.218h-0.305v1.217h-0.696v-3.115h1.318c0.028-0.002 0.062-0.003 0.095-0.003 0.309 0 0.595 0.1 0.827 0.271l-0.004-0.003c0.184 0.169 0.296 0.392 0.313 0.628s-0.058 0.47-0.215 0.66c-0.163 0.168-0.385 0.28-0.629 0.317l0.862 1.244h-0.757zM4.295 23.506h0.569c0.396 0 0.593-0.157 0.593-0.472 0-0.008 0.001-0.016 0.001-0.025 0-0.059-0.012-0.115-0.034-0.166l0.001 0.003c-0.027-0.063-0.065-0.117-0.113-0.161l-0-0c-0.108-0.080-0.245-0.128-0.392-0.128-0.020 0-0.039 0.001-0.058 0.003l0.003-0h-0.577l0.007 0.948zM9.216 24.521h-1.388l-0.245 0.627h-0.73l1.275-3.080h0.789l1.269 3.080h-0.73l-0.24-0.627zM9.030 24.049l-0.507-1.315-0.507 1.315h1.014zM13.98 25.148h-0.691l-1.55-2.118v2.118h-0.69v-3.115h0.69l1.55 2.13v-2.13h0.691v3.115zM17.925 24.402c-0.151 0.24-0.364 0.429-0.616 0.546l-0.009 0.004c-0.301 0.137-0.635 0.204-0.972 0.196h-1.231v-3.115h1.231c0.017-0 0.037-0.001 0.057-0.001 0.331 0 0.645 0.071 0.929 0.198l-0.014-0.006c0.265 0.12 0.483 0.31 0.625 0.544 0.142 0.253 0.216 0.533 0.216 0.817-0.001 0.3-0.081 0.582-0.221 0.825l0.004-0.008zM17.134 24.328c0.187-0.192 0.304-0.454 0.306-0.743v-0c-0.002-0.289-0.119-0.551-0.306-0.743l0 0c-0.215-0.167-0.489-0.268-0.786-0.268-0.028 0-0.056 0.001-0.083 0.003l0.004-0h-0.48v2.017h0.48c0.024 0.002 0.052 0.003 0.080 0.003 0.297 0 0.57-0.101 0.788-0.269l-0.003 0.002zM9.648 4.707s8.923 3.032 8.734 7.421v7.423s-8.916-3.034-8.731-7.423l-0.003-7.421zM26.331 17.813c1.685-1.044 3.634-1.691 5.669-1.881v-2.324c-2.345 0.813-4.333 2.288-5.669 4.204z"></path>
<path fill="#8e8f99" d="M25.319 18.513c1.379-2.501 3.77-4.43 6.681-5.391v-6.696s-12.708 4.32-12.439 10.57v10.568s0.566-0.193 1.457-0.556c0-0.338 0-0.679 0.041-1.021 0.263-2.901 1.795-5.59 4.26-7.474z"></path>
<path fill="#8e8f99" d="M24.11 22.439c0.075-0.799 0.232-1.534 0.465-2.234l-0.020 0.070c-1.534 1.627-2.464 3.647-2.658 5.775-0.018 0.201-0.028 0.401-0.034 0.608 1.065-0.458 1.868-0.846 2.655-1.26l-0.211 0.101c-0.152-0.649-0.239-1.394-0.239-2.16 0-0.317 0.015-0.631 0.044-0.94l-0.003 0.040zM24.615 22.477c-0.025 0.257-0.039 0.555-0.039 0.856 0 0.678 0.072 1.339 0.207 1.976l-0.011-0.062c3.472-1.87 7.373-4.759 7.222-8.252v-0.305c-2.48 0.25-4.801 1.227-6.606 2.779-0.398 0.879-0.673 1.899-0.771 2.97l-0.003 0.037z"></path>
</svg>
