<!-- Generated by IcoMoon.io -->
<svg version="1.1" xmlns="http://www.w3.org/2000/svg" width="32" height="32" viewBox="0 0 32 32">
<title>company</title>
<path fill="#8e8f99" d="M4.953 30.344c0.012 0 0.023 0.003 0.033 0.007 0.011 0.004 0.021 0.010 0.029 0.017l-0-0 0.16 0.151c-0.126 0.122-0.276 0.219-0.442 0.283l-0.009 0.003c-0.204 0.073-0.422 0.108-0.641 0.103-0.010 0-0.022 0-0.034 0-0.204 0-0.4-0.035-0.581-0.1l0.012 0.004c-0.175-0.063-0.326-0.155-0.454-0.271l0.001 0.001c-0.124-0.115-0.223-0.255-0.29-0.411l-0.003-0.008c-0.065-0.154-0.103-0.333-0.103-0.521 0-0.005 0-0.011 0-0.016v0.001c-0-0.005-0-0.011-0-0.017 0-0.189 0.041-0.368 0.114-0.529l-0.003 0.008c0.070-0.156 0.176-0.298 0.311-0.418 0.136-0.117 0.296-0.21 0.471-0.27l0.010-0.003c0.179-0.061 0.385-0.096 0.6-0.096 0.007 0 0.014 0 0.022 0h-0.001c0.196-0.004 0.393 0.026 0.576 0.087 0.159 0.060 0.305 0.141 0.432 0.242l-0.135 0.161c-0.010 0.012-0.021 0.021-0.034 0.029l-0.001 0c-0.013 0.008-0.030 0.013-0.047 0.013-0.003 0-0.005-0-0.008-0l0 0c-0.022-0.001-0.041-0.008-0.059-0.018l0.001 0-0.073-0.043-0.1-0.055c-0.092-0.044-0.199-0.078-0.31-0.096l-0.007-0.001c-0.066-0.011-0.142-0.017-0.219-0.017-0.007 0-0.014 0-0.021 0h0.001c-0.005-0-0.010-0-0.016-0-0.154 0-0.302 0.026-0.439 0.075l0.009-0.003c-0.135 0.047-0.251 0.115-0.35 0.203l0.001-0.001c-0.1 0.094-0.177 0.204-0.227 0.323-0.052 0.121-0.082 0.263-0.082 0.411 0 0.005 0 0.010 0 0.015v-0.001c-0 0.005-0 0.011-0 0.016 0 0.15 0.030 0.293 0.085 0.423l-0.003-0.007c0.103 0.245 0.303 0.433 0.55 0.518l0.006 0.002c0.131 0.047 0.271 0.070 0.413 0.068 0.082 0.001 0.164-0.004 0.245-0.014 0.204-0.020 0.386-0.101 0.532-0.222l-0.002 0.001c0.021-0.017 0.047-0.027 0.076-0.028h0zM9.59 29.585c0.003 0.182-0.034 0.364-0.108 0.534-0.072 0.164-0.174 0.302-0.301 0.413l-0.001 0.001c-0.134 0.118-0.295 0.211-0.474 0.271-0.182 0.061-0.392 0.096-0.61 0.096s-0.428-0.035-0.624-0.1l0.014 0.004c-0.182-0.063-0.34-0.156-0.474-0.274l0.002 0.001c-0.128-0.114-0.231-0.253-0.302-0.41l-0.003-0.008c-0.069-0.158-0.109-0.341-0.109-0.535s0.040-0.377 0.112-0.543l-0.003 0.009c0.068-0.156 0.172-0.298 0.305-0.42 0.135-0.114 0.295-0.204 0.472-0.262 0.393-0.131 0.828-0.131 1.22 0 0.178 0.062 0.34 0.154 0.473 0.273 0.253 0.226 0.412 0.553 0.412 0.918 0 0.011-0 0.022-0 0.034l0-0.002zM9.168 29.585c0.004-0.145-0.022-0.291-0.076-0.429-0.098-0.249-0.298-0.439-0.548-0.521l-0.006-0.002c-0.132-0.045-0.285-0.070-0.444-0.070s-0.311 0.026-0.454 0.073l0.010-0.003c-0.132 0.046-0.245 0.115-0.34 0.203l0.001-0.001c-0.093 0.087-0.167 0.194-0.215 0.314l-0.002 0.006c-0.102 0.28-0.102 0.579 0 0.858 0.045 0.119 0.119 0.228 0.217 0.321 0.095 0.087 0.211 0.156 0.34 0.201 0.286 0.092 0.601 0.092 0.887 0 0.129-0.044 0.245-0.113 0.339-0.201 0.097-0.093 0.169-0.203 0.215-0.321 0.054-0.138 0.080-0.284 0.076-0.429zM12.754 30.036l0.041 0.096c0.016-0.034 0.031-0.065 0.047-0.096 0.015-0.033 0.033-0.064 0.052-0.095l1.025-1.593c0.020-0.028 0.039-0.045 0.058-0.051s0.044-0.008 0.069-0.008c0.006 0 0.011 0 0.017 0l-0.001-0h0.303v2.591h-0.359v-1.985c-0.001-0.013-0.001-0.029-0.001-0.045s0.001-0.031 0.002-0.047l-0 0.002-1.032 1.615c-0.014 0.025-0.035 0.045-0.060 0.059l-0.001 0c-0.025 0.014-0.055 0.022-0.087 0.022-0 0-0.001 0-0.001 0h-0.058c-0.001 0-0.002 0-0.002 0-0.032 0-0.061-0.008-0.087-0.022l0.001 0c-0.025-0.013-0.046-0.033-0.059-0.057l-0-0.001-1.062-1.626v2.080h-0.348v-2.586h0.303c0.004-0 0.009-0 0.013-0 0.025 0 0.050 0.003 0.073 0.009l-0.002-0c0.024 0.010 0.043 0.027 0.056 0.049l0 0.001 1.047 1.595c0.021 0.029 0.039 0.061 0.053 0.093zM16.615 29.907v0.97h-0.401v-2.588h0.895c0.169-0.003 0.338 0.016 0.5 0.057 0.13 0.031 0.25 0.086 0.353 0.161 0.086 0.067 0.154 0.152 0.199 0.25l0.002 0.004c0.047 0.105 0.071 0.217 0.068 0.331 0 0.003 0 0.008 0 0.012 0 0.236-0.114 0.446-0.289 0.577l-0.002 0.001c-0.101 0.076-0.22 0.135-0.349 0.17l-0.007 0.002c-0.156 0.042-0.319 0.063-0.483 0.060l-0.486-0.007zM16.615 29.629h0.486c0.105 0.001 0.211-0.012 0.311-0.040 0.086-0.025 0.161-0.063 0.227-0.113l-0.002 0.001c0.113-0.090 0.185-0.228 0.185-0.383 0-0.002 0-0.004-0-0.006v0c0.001-0.008 0.001-0.017 0.001-0.026 0-0.067-0.015-0.131-0.043-0.187l0.001 0.003c-0.034-0.070-0.081-0.13-0.139-0.176l-0.001-0.001c-0.134-0.089-0.299-0.141-0.476-0.141-0.022 0-0.044 0.001-0.066 0.002l0.003-0h-0.486v1.067zM22.011 30.881h-0.318c-0.002 0-0.004 0-0.006 0-0.031 0-0.059-0.009-0.083-0.024l0.001 0c-0.022-0.015-0.040-0.035-0.052-0.059l-0-0.001-0.273-0.626h-1.372l-0.283 0.625c-0.011 0.024-0.029 0.044-0.050 0.058l-0 0c-0.024 0.016-0.054 0.026-0.086 0.026-0.002 0-0.003-0-0.005-0h-0.317l1.204-2.591h0.417l1.221 2.591zM20.023 29.919h1.132l-0.478-1.055c-0.032-0.067-0.063-0.148-0.088-0.232l-0.003-0.012-0.046 0.135c-0.015 0.041-0.030 0.079-0.044 0.109l-0.474 1.055zM23.745 28.301c0.024 0.011 0.044 0.027 0.059 0.046l0 0 1.757 1.953v-2.012h0.359v2.591h-0.201c-0.002 0-0.005 0-0.008 0-0.027 0-0.053-0.005-0.076-0.015l0.001 0c-0.025-0.013-0.046-0.029-0.064-0.049l-0-0-1.754-1.952c0.001 0.013 0.001 0.029 0.001 0.045s-0.001 0.031-0.002 0.047l0-0.002v1.926h-0.359v-2.591h0.212c0.025-0.001 0.049 0.003 0.073 0.012zM28.88 29.85v1.029h-0.401v-1.029l-1.11-1.561h0.359c0.003-0 0.006-0 0.009-0 0.029 0 0.055 0.008 0.078 0.022l-0.001-0c0.022 0.017 0.040 0.036 0.054 0.058l0.695 1.007c0.048 0.066 0.089 0.142 0.12 0.223l0.002 0.007 0.052-0.111c0.020-0.041 0.043-0.080 0.068-0.119l0.685-1.014c0.015-0.021 0.032-0.039 0.051-0.055l0-0c0.022-0.016 0.050-0.026 0.079-0.026 0.003 0 0.005 0 0.007 0h0.363l-1.113 1.568zM12.555 23.94c0.175 0.019 0.351 0.034 0.53 0.048 2.708-1.036 5-2.729 6.588-4.872s2.401-4.636 2.339-7.171l-2.985-2.551c0.607 2.699 0.323 5.489-0.82 8.058-1.143 2.568-3.1 4.815-5.652 6.487z"></path>
<path fill="#8e8f99" d="M11.489 23.821l0.080 0.014c2.727-1.667 4.807-3.994 5.969-6.681s1.355-5.61 0.552-8.392l-4.252-3.633c1.72 2.986 2.412 6.328 1.996 9.636s-1.923 6.45-4.345 9.056zM25.909 14.94c-0.722 2.785-2.477 5.297-5.003 7.164-0.688 0.515-1.467 1-2.286 1.416l-0.091 0.042c2.057-0.516 3.948-1.43 5.526-2.669s2.803-2.772 3.578-4.48l-1.724-1.472z"></path>
<path fill="#8e8f99" d="M25.233 14.529l-2.455-2.097c-0.047 2.392-0.843 4.729-2.305 6.769s-3.537 3.708-6.009 4.831h0.012c0.551 0 1.101-0.028 1.648-0.084 2.311-0.806 4.351-2.087 5.94-3.731s2.678-3.598 3.168-5.687zM11.844 3.597l-2.928-2.506c-2.618 0.865-4.871 2.384-6.461 4.361-1.592 1.976-2.448 4.316-2.455 6.715 0.009 2.649 1.054 5.222 2.967 7.308s4.585 3.567 7.594 4.21c2.687-2.796 4.26-6.252 4.49-9.865s-0.893-7.193-3.207-10.223zM32 14.144c-0.011-3.145-1.477-6.157-4.080-8.38-2.601-2.223-6.128-3.476-9.808-3.486-0.009-0-0.020-0-0.031-0-1.767 0-3.466 0.289-5.053 0.823l0.112-0.033 17.933 15.322c0.584-1.247 0.925-2.707 0.927-4.247v-0.001z"></path>
</svg>
