<!-- Generated by IcoMoon.io -->
<svg version="1.1" xmlns="http://www.w3.org/2000/svg" width="32" height="32" viewBox="0 0 32 32">
<title>companytegline</title>
<path fill="#8e8f99" d="M15.42 9.211h-0.042c-0.065-0.004-0.129-0.006-0.194-0.007h-0.14c-0.122 0-0.247 0.003-0.37 0.009-0.004-0-0.009-0.001-0.014-0.001s-0.010 0-0.015 0.001l0.001-0c-1.188 0.069-2.291 0.366-3.288 0.848l0.052-0.023-0.133 0.064v6.813l0.311-0.106c0.273-0.094 0.564-0.178 0.866-0.257 0.744-0.199 1.601-0.319 2.484-0.331l0.007-0v0.895c-0.111 0.001-0.219 0.004-0.328 0.009h-0.026c-0.699 0.039-1.355 0.144-1.986 0.31l0.069-0.015c-0.867 0.22-1.627 0.525-2.333 0.915l0.050-0.025v-8.738c0.69-0.41 1.487-0.744 2.332-0.96l0.063-0.014c0.677-0.182 1.454-0.288 2.255-0.291h0.133c0.157 0.004 0.311 0.011 0.455 0.022 0.379 0.027 0.756 0.087 1.125 0.179v0.881c-0.314-0.077-0.686-0.135-1.067-0.163l-0.023-0.001-0.022-0.002c-0.076-0.006-0.152-0.013-0.223-0.013zM16.97 10.111c0.195 0.015 0.398 0.022 0.602 0.022 0.845-0.003 1.662-0.114 2.441-0.32l-0.067 0.015c0.867-0.221 1.626-0.526 2.332-0.916l-0.050 0.025v8.582c-0.69 0.41-1.487 0.744-2.332 0.96l-0.064 0.014c-0.677 0.181-1.454 0.287-2.255 0.29h-0.002c-0.016 0-0.036 0-0.055 0-0.588 0-1.159-0.074-1.705-0.212l0.048 0.010v-8.638c0.132 0.031 0.269 0.059 0.407 0.082 0.227 0.038 0.467 0.066 0.701 0.084zM21.338 10.178l-0.311 0.105c-0.286 0.096-0.575 0.182-0.866 0.259-0.775 0.207-1.666 0.328-2.584 0.332h-0.002c-0.203 0-0.39-0.006-0.57-0.017l-0.248-0.016v7.008l0.213 0.018c0.198 0.018 0.402 0.026 0.607 0.026 0.725-0.003 1.427-0.099 2.095-0.277l-0.058 0.013c0.611-0.155 1.14-0.351 1.643-0.595l-0.051 0.022 0.133-0.064v-6.815z"></path>
<path fill="#8e8f99" d="M10.996 21.296c-0.084-0.087-0.201-0.14-0.33-0.14-0.006 0-0.011 0-0.017 0l0.001-0c-0.002-0-0.005-0-0.007-0-0.070 0-0.136 0.014-0.196 0.039l0.003-0.001c-0.118 0.047-0.21 0.14-0.255 0.256l-0.001 0.003c-0.025 0.062-0.037 0.127-0.036 0.193v1.167c-0.003 0.082 0.013 0.164 0.046 0.239 0.028 0.060 0.067 0.113 0.117 0.157 0.046 0.039 0.101 0.068 0.16 0.083 0.057 0.016 0.116 0.024 0.174 0.024 0.065 0.001 0.129-0.013 0.188-0.041 0.175-0.078 0.295-0.25 0.295-0.451v-0.13h-0.306v0.104c0 0.002 0 0.005 0 0.007 0 0.035-0.007 0.068-0.019 0.099l0.001-0.002c-0.010 0.026-0.025 0.048-0.044 0.066l-0 0c-0.035 0.027-0.079 0.044-0.128 0.045h-0c-0.005 0.001-0.012 0.001-0.018 0.001-0.051 0-0.097-0.025-0.125-0.063l-0-0c-0.026-0.041-0.041-0.091-0.041-0.145 0-0.004 0-0.008 0-0.012l-0 0.001v-1.089c-0.002-0.060 0.011-0.12 0.038-0.174 0.028-0.043 0.076-0.072 0.131-0.072 0.006 0 0.013 0 0.019 0.001l-0.001-0c0.002-0 0.004-0 0.006-0 0.053 0 0.101 0.026 0.13 0.066l0 0c0.032 0.041 0.051 0.093 0.051 0.15 0 0.002-0 0.005-0 0.007v-0 0.101h0.302v-0.119c0-0.002 0-0.003 0-0.005 0-0.072-0.014-0.14-0.039-0.203l0.001 0.004c-0.024-0.064-0.059-0.119-0.102-0.165l0 0zM12.809 21.283c-0.093-0.079-0.214-0.128-0.347-0.129h-0c-0.062 0-0.124 0.011-0.182 0.033-0.126 0.045-0.225 0.138-0.278 0.256l-0.001 0.003c-0.031 0.071-0.046 0.148-0.045 0.226v1.119c-0.002 0.079 0.013 0.157 0.045 0.229 0.028 0.060 0.068 0.114 0.118 0.157 0.047 0.043 0.102 0.077 0.161 0.098 0.058 0.022 0.12 0.033 0.182 0.033 0.133-0 0.255-0.050 0.348-0.132l-0.001 0c0.049-0.044 0.088-0.097 0.115-0.157 0.031-0.072 0.046-0.15 0.045-0.229v-1.12c0-0.003 0-0.006 0-0.010 0-0.078-0.016-0.152-0.046-0.22l0.001 0.003c-0.028-0.064-0.067-0.118-0.115-0.163l-0-0zM12.666 22.792c0 0.005 0.001 0.011 0.001 0.017 0 0.057-0.024 0.108-0.061 0.145l-0 0c-0.039 0.032-0.089 0.052-0.144 0.052s-0.105-0.020-0.144-0.053l0 0c-0.038-0.036-0.061-0.088-0.061-0.144 0-0.006 0-0.013 0.001-0.019l-0 0.001v-1.12c-0-0.005-0.001-0.011-0.001-0.017 0-0.057 0.024-0.108 0.061-0.145l0-0c0.039-0.033 0.089-0.052 0.144-0.052s0.105 0.020 0.144 0.053l-0-0c0.038 0.037 0.061 0.088 0.061 0.144 0 0.006-0 0.012-0.001 0.018l0-0.001v1.12zM15.19 23.292v-2.12h-0.293l-0.386 1.122h-0.005l-0.389-1.122h-0.29v2.119h0.303v-1.289h0.006l0.296 0.911h0.151l0.299-0.911h0.006v1.289h0.303zM16.91 21.321c-0.046-0.052-0.106-0.092-0.171-0.116-0.062-0.021-0.134-0.033-0.208-0.033-0.004 0-0.008 0-0.012 0h-0.449v2.12h0.302v-0.828h0.155c0.094 0.004 0.188-0.016 0.273-0.058 0.069-0.039 0.125-0.094 0.165-0.16l0.001-0.002c0.035-0.056 0.058-0.119 0.069-0.185 0.010-0.067 0.016-0.144 0.016-0.222 0-0.007-0-0.013-0-0.020v0.001c0.003-0.102-0.007-0.204-0.030-0.303-0.021-0.076-0.060-0.142-0.111-0.195l0 0zM16.754 21.967c-0.001 0.041-0.012 0.078-0.029 0.112l0.001-0.002c-0.017 0.033-0.044 0.058-0.077 0.074l-0.001 0c-0.037 0.017-0.081 0.027-0.127 0.027-0.006 0-0.011-0-0.016-0l0.001 0h-0.138v-0.721h0.156c0.004-0 0.009-0 0.015-0 0.044 0 0.086 0.010 0.124 0.028l-0.002-0.001c0.031 0.018 0.056 0.045 0.070 0.077l0 0.001c0.017 0.037 0.026 0.078 0.026 0.118v0.141c0 0.049 0.003 0.1 0 0.146h-0.003zM18.341 21.172h-0.248l-0.467 2.12h0.302l0.089-0.455h0.412l0.089 0.455h0.302l-0.478-2.12zM18.062 22.548l0.149-0.768h0.006l0.148 0.768h-0.302zM20.292 22.449h-0.006l-0.456-1.277h-0.29v2.12h0.302v-1.275h0.006l0.462 1.274h0.284v-2.119h-0.302v1.277zM22.138 21.172l-0.243 0.843h-0.006l-0.243-0.843h-0.319l0.415 1.224v0.896h0.302v-0.896l0.415-1.224h-0.32zM10.154 23.891h0.146v0.408h0.099v-0.409h0.145v-0.084h-0.389v0.084zM11.378 23.807l-0.191 0.492h0.105l0.041-0.112h0.196l0.042 0.112h0.108l-0.196-0.492h-0.105zM11.362 24.104l0.067-0.182 0.067 0.182h-0.134zM12.587 24.118h0.114v0.063c-0.032 0.026-0.072 0.041-0.117 0.042h-0c-0.002 0-0.005 0-0.007 0-0.039 0-0.075-0.018-0.097-0.047l-0-0c-0.023-0.033-0.037-0.073-0.037-0.117 0-0.004 0-0.008 0-0.012l-0 0.001c0-0.11 0.047-0.164 0.142-0.164 0.003-0 0.007-0.001 0.011-0.001 0.049 0 0.089 0.033 0.101 0.078l0 0.001 0.097-0.019c-0.021-0.096-0.090-0.145-0.209-0.145-0.002-0-0.004-0-0.007-0-0.064 0-0.122 0.024-0.166 0.064l0-0c-0.044 0.044-0.071 0.104-0.071 0.171 0 0.006 0 0.013 0.001 0.019l-0-0.001c-0 0.003-0 0.007-0 0.012 0 0.066 0.024 0.127 0.064 0.174l-0-0c0.043 0.045 0.104 0.073 0.172 0.073 0.005 0 0.011-0 0.016-0.001l-0.001 0c0.002 0 0.005 0 0.008 0 0.078 0 0.148-0.030 0.201-0.079l-0 0v-0.194h-0.213v0.083zM13.822 23.807h-0.1v0.492h0.345v-0.084h-0.245v-0.409zM14.867 23.807h-0.1v0.492h0.1v-0.492zM15.888 24.135l-0.202-0.329h-0.096v0.492h0.092v-0.322l0.198 0.322h0.099v-0.492h-0.091v0.329zM16.811 24.082h0.245v-0.084h-0.245v-0.108h0.264v-0.084h-0.363v0.492h0.374v-0.084h-0.274v-0.133zM19.050 24.001h-0.194v-0.194h-0.098v0.492h0.098v-0.215h0.194v0.215h0.099v-0.492h-0.099v0.194zM19.978 24.082h0.246v-0.084h-0.246v-0.108h0.265v-0.084h-0.363v0.492h0.373v-0.084h-0.274v-0.133zM21.238 24.082c0.086-0.014 0.129-0.059 0.129-0.137 0.001-0.004 0.001-0.009 0.001-0.014 0-0.039-0.019-0.074-0.049-0.096l-0-0c-0.036-0.019-0.079-0.030-0.125-0.030-0.007 0-0.013 0-0.020 0.001l0.001-0h-0.209v0.492h0.099v-0.206h0.019c0.002-0 0.005-0 0.008-0 0.019 0 0.038 0.004 0.054 0.012l-0.001-0c0.014 0.009 0.026 0.021 0.035 0.036l0.107 0.156h0.118l-0.060-0.096c-0.027-0.048-0.064-0.088-0.108-0.117l-0.001-0.001zM21.138 24.014h-0.073v-0.123h0.078c0.006-0.001 0.013-0.001 0.021-0.001 0.028 0 0.056 0.005 0.081 0.013l-0.002-0.001c0.013 0.012 0.021 0.029 0.021 0.048 0 0.021-0.010 0.040-0.026 0.052l-0 0c-0.025 0.008-0.053 0.012-0.082 0.012-0.006 0-0.013-0-0.019-0.001l0.001 0zM22.188 24.082h0.245v-0.084h-0.245v-0.108h0.265v-0.084h-0.364v0.492h0.374v-0.084h-0.274v-0.133z"></path>
</svg>
