<!-- Generated by IcoMoon.io -->
<svg version="1.1" xmlns="http://www.w3.org/2000/svg" width="32" height="32" viewBox="0 0 32 32">
<title>foster</title>
<path fill="#8e8f99" d="M4.982 12.959h-0.001c-0.909 0-1.646 0.664-1.646 1.483v0.001c0 0.819 0.737 1.483 1.646 1.483h0.001c0.909 0 1.646-0.664 1.646-1.483v-0.001c0-0.819-0.737-1.483-1.646-1.483zM17.128 12.485c-0.002-1.138-0.505-2.229-1.397-3.034s-2.102-1.258-3.365-1.261c-1.262 0.002-2.473 0.455-3.366 1.26s-1.396 1.896-1.398 3.034v6.276s9.525-0.956 9.526-6.275v-0.001zM0 20.821c0.002 0.792 0.352 1.551 0.973 2.111s1.463 0.876 2.341 0.878c0.878-0.002 1.72-0.318 2.341-0.878s0.971-1.318 0.973-2.11v-4.366s-6.628 0.666-6.628 4.365zM3.314 21.603c-0.171 0-0.339-0.046-0.482-0.132-0.139-0.083-0.249-0.203-0.318-0.346l-0.002-0.005c-0.042-0.088-0.066-0.191-0.066-0.299 0-0.054 0.006-0.107 0.017-0.157l-0.001 0.005c0.038-0.161 0.122-0.298 0.237-0.4l0.001-0.001c0.121-0.108 0.272-0.183 0.439-0.213l0.005-0.001c0.168-0.030 0.343-0.015 0.501 0.045s0.294 0.159 0.389 0.288 0.146 0.28 0.146 0.435c0 0.103-0.022 0.205-0.065 0.301s-0.107 0.182-0.188 0.255c-0.079 0.072-0.173 0.129-0.276 0.168l-0.006 0.002c-0.099 0.038-0.213 0.060-0.332 0.060-0 0-0.001 0-0.001 0h0v-0.003zM9.375 20.196v1.625h-0.335v-1.625h0.335zM10.022 20.89v0.261h-0.739v-0.261h0.739zM10.1 20.196v0.262h-0.816v-0.262h0.817zM11.629 20.971v0.077c0 0.124-0.017 0.235-0.050 0.333-0.032 0.097-0.080 0.181-0.143 0.252l0.001-0.001c-0.061 0.069-0.134 0.121-0.219 0.157-0.080 0.035-0.173 0.055-0.27 0.055-0.004 0-0.007-0-0.011-0h0.001c-0.102 0-0.195-0.018-0.28-0.054-0.086-0.038-0.159-0.091-0.218-0.157l-0.001-0.001c-0.062-0.071-0.111-0.154-0.142-0.246l-0.002-0.005c-0.032-0.095-0.050-0.204-0.050-0.318 0-0.005 0-0.010 0-0.016v0.001-0.077c0-0.124 0.017-0.235 0.050-0.333 0.032-0.097 0.081-0.18 0.143-0.252l-0.001 0.001c0.062-0.069 0.135-0.122 0.219-0.158 0.085-0.037 0.178-0.055 0.28-0.055 0.103 0 0.196 0.018 0.28 0.055s0.158 0.089 0.219 0.158c0.062 0.069 0.109 0.153 0.143 0.251 0.034 0.097 0.051 0.208 0.051 0.332zM11.291 21.048v-0.079c0-0.086-0.008-0.162-0.023-0.227-0.014-0.063-0.038-0.118-0.070-0.167l0.001 0.002c-0.028-0.042-0.066-0.076-0.11-0.1l-0.002-0.001c-0.042-0.022-0.092-0.034-0.144-0.034-0.002 0-0.005 0-0.007 0h0c-0.056 0-0.107 0.011-0.15 0.034-0.045 0.024-0.082 0.058-0.11 0.099l-0.001 0.001c-0.031 0.047-0.054 0.103-0.068 0.162l-0.001 0.003c-0.015 0.064-0.023 0.138-0.023 0.213 0 0.005 0 0.010 0 0.015v-0.001 0.079c0 0.086 0.008 0.162 0.023 0.228s0.039 0.121 0.069 0.166c0.030 0.045 0.068 0.078 0.112 0.101s0.094 0.035 0.15 0.035c0.057 0 0.107-0.011 0.151-0.034 0.045-0.025 0.083-0.059 0.11-0.101l0.001-0.001c0.030-0.046 0.053-0.101 0.068-0.166 0.015-0.064 0.023-0.138 0.023-0.214 0-0.005-0-0.010-0-0.014v0.001zM12.716 21.396c0-0.001 0-0.002 0-0.004 0-0.027-0.005-0.052-0.014-0.076l0.001 0.001c-0.010-0.026-0.026-0.048-0.047-0.065l-0-0c-0.028-0.023-0.060-0.043-0.095-0.058l-0.003-0.001c-0.043-0.020-0.097-0.041-0.152-0.058l-0.010-0.003c-0.086-0.028-0.155-0.055-0.222-0.086l0.013 0.005c-0.066-0.030-0.124-0.065-0.176-0.105l0.002 0.001c-0.048-0.038-0.087-0.085-0.117-0.137l-0.001-0.002c-0.027-0.051-0.043-0.112-0.043-0.176 0-0.003 0-0.005 0-0.008v0c-0-0.002-0-0.003-0-0.005 0-0.065 0.017-0.127 0.046-0.181l-0.001 0.002c0.030-0.056 0.072-0.104 0.125-0.143 0.053-0.040 0.117-0.071 0.19-0.093 0.074-0.021 0.154-0.032 0.242-0.032 0.12 0 0.224 0.022 0.314 0.065s0.158 0.102 0.208 0.178c0.050 0.075 0.075 0.161 0.075 0.258h-0.333c0-0.002 0-0.004 0-0.006 0-0.044-0.011-0.085-0.031-0.12l0.001 0.001c-0.020-0.037-0.051-0.067-0.088-0.086l-0.001-0.001c-0.040-0.020-0.088-0.031-0.138-0.031-0.004 0-0.008 0-0.012 0l0.001-0c-0.003-0-0.007-0-0.011-0-0.048 0-0.094 0.010-0.136 0.028l0.002-0.001c-0.036 0.015-0.066 0.039-0.087 0.070l-0 0.001c-0.018 0.027-0.029 0.060-0.029 0.095 0 0.001 0 0.002 0 0.003v-0c0 0.027 0.006 0.053 0.020 0.075 0.017 0.025 0.038 0.046 0.062 0.062l0.001 0c0.027 0.019 0.061 0.038 0.101 0.055s0.087 0.034 0.139 0.050c0.089 0.027 0.166 0.057 0.234 0.090s0.124 0.071 0.17 0.113c0.046 0.042 0.080 0.089 0.103 0.142s0.034 0.113 0.034 0.18c0 0.005 0 0.010 0 0.016 0 0.129-0.063 0.244-0.16 0.315l-0.001 0.001c-0.052 0.038-0.114 0.068-0.186 0.088s-0.153 0.030-0.242 0.030c-0.080 0-0.16-0.011-0.238-0.032-0.081-0.022-0.152-0.056-0.216-0.099l0.003 0.002c-0.063-0.043-0.114-0.098-0.15-0.163l-0.001-0.002c-0.038-0.067-0.057-0.146-0.057-0.238h0.336c0 0.051 0.008 0.093 0.023 0.128s0.037 0.063 0.065 0.084l0.001 0c0.029 0.021 0.064 0.038 0.101 0.046l0.002 0c0.040 0.010 0.084 0.014 0.131 0.014 0.004 0 0.008 0 0.012 0 0.047 0 0.092-0.009 0.133-0.025l-0.002 0.001c0.066-0.027 0.112-0.090 0.112-0.164 0-0.001 0-0.002-0-0.003v0zM14.005 20.196v1.625h-0.334v-1.625h0.334zM14.506 20.196v0.262h-1.326v-0.262h1.326zM15.787 21.56v0.261h-0.865v-0.261h0.865zM15.031 20.196v1.625h-0.335v-1.625h0.335zM15.674 20.858v0.254h-0.752v-0.254h0.752zM15.786 20.196v0.262h-0.864v-0.262h0.864zM15.982 20.196h0.606c0.125 0 0.231 0.019 0.32 0.056 0.090 0.037 0.159 0.093 0.208 0.165s0.072 0.163 0.072 0.269c0 0.087-0.014 0.162-0.045 0.224s-0.071 0.114-0.123 0.154l-0.001 0.001c-0.053 0.041-0.115 0.074-0.182 0.097l-0.005 0.001-0.106 0.056h-0.527l-0.002-0.261h0.392c0.003 0 0.007 0 0.011 0 0.049 0 0.096-0.012 0.137-0.032l-0.002 0.001c0.038-0.020 0.067-0.050 0.087-0.086l0.001-0.001c0.019-0.036 0.030-0.078 0.030-0.123 0-0.002-0-0.004-0-0.006v0c0-0.002 0-0.005 0-0.007 0-0.046-0.011-0.090-0.030-0.129l0.001 0.002c-0.020-0.038-0.050-0.068-0.087-0.086l-0.001-0c-0.040-0.019-0.088-0.031-0.138-0.031-0.004 0-0.007 0-0.011 0h-0.271v1.363h-0.334v-1.625zM16.89 21.821l-0.37-0.725 0.354-0.002 0.375 0.711v0.015h-0.358zM18.648 21.242h-0.414v-0.261h0.414c0.004 0 0.009 0 0.013 0 0.052 0 0.101-0.012 0.145-0.032l-0.002 0.001c0.038-0.020 0.069-0.051 0.087-0.088l0.001-0.001c0.017-0.039 0.028-0.084 0.028-0.132s-0.010-0.093-0.028-0.134l0.001 0.002c-0.019-0.042-0.049-0.077-0.087-0.1l-0.001-0.001c-0.041-0.024-0.091-0.038-0.144-0.038-0.004 0-0.009 0-0.013 0l0.001-0h-0.298v1.363h-0.334v-1.625h0.632c0.128 0 0.236 0.023 0.328 0.069 0.091 0.045 0.161 0.108 0.21 0.189s0.072 0.172 0.072 0.275c0 0.105-0.024 0.196-0.072 0.272s-0.118 0.136-0.21 0.178c-0.091 0.042-0.2 0.062-0.328 0.062zM20.579 21.56v0.261h-0.865v-0.261h0.865zM19.824 20.196v1.625h-0.335v-1.625h0.335zM20.466 20.858v0.254h-0.752v-0.254h0.752zM20.578 20.196v0.262h-0.864v-0.262h0.864zM21.523 20.196v1.625h-0.333v-1.625h0.334zM22.023 20.196v0.262h-1.326v-0.262h1.326zM23.304 21.56v0.261h-0.865v-0.261h0.865zM22.549 20.196v1.625h-0.335v-1.625h0.335zM23.192 20.858v0.254h-0.752v-0.254h0.752zM23.303 20.196v0.262h-0.864v-0.262h0.864zM23.5 20.196h0.606c0.125 0 0.231 0.019 0.321 0.056s0.159 0.093 0.208 0.165c0.048 0.073 0.072 0.163 0.072 0.269 0 0.087-0.015 0.162-0.045 0.224s-0.071 0.114-0.123 0.154l-0.001 0.001c-0.053 0.041-0.115 0.074-0.182 0.097l-0.005 0.001-0.106 0.056h-0.527l-0.002-0.261h0.392c0.003 0 0.007 0 0.011 0 0.049 0 0.096-0.012 0.137-0.032l-0.002 0.001c0.038-0.020 0.067-0.050 0.087-0.086l0.001-0.001c0.019-0.036 0.031-0.079 0.031-0.124 0-0.002-0-0.004-0-0.006v0c0-0.002 0-0.004 0-0.007 0-0.047-0.011-0.091-0.030-0.13l0.001 0.002c-0.020-0.038-0.050-0.068-0.087-0.086l-0.001-0c-0.040-0.019-0.088-0.031-0.138-0.031-0.004 0-0.007 0-0.011 0h-0.27v1.363h-0.335v-1.625zM24.408 21.821l-0.371-0.725 0.354-0.002 0.375 0.711v0.015h-0.358zM25.81 21.396c0-0.001 0-0.002 0-0.002 0-0.027-0.005-0.053-0.014-0.077l0 0.001c-0.010-0.026-0.026-0.048-0.047-0.065l-0-0c-0.028-0.023-0.060-0.043-0.095-0.058l-0.003-0.001c-0.043-0.020-0.097-0.041-0.152-0.058l-0.010-0.003c-0.086-0.028-0.155-0.055-0.223-0.086l0.013 0.005c-0.066-0.030-0.124-0.065-0.176-0.105l0.002 0.001c-0.048-0.038-0.087-0.085-0.117-0.137l-0.001-0.002c-0.027-0.051-0.043-0.112-0.043-0.176 0-0.003 0-0.005 0-0.008v0c-0-0.002-0-0.003-0-0.005 0-0.065 0.017-0.127 0.046-0.181l-0.001 0.002c0.030-0.056 0.072-0.104 0.125-0.143 0.053-0.040 0.117-0.071 0.19-0.093 0.074-0.021 0.154-0.032 0.242-0.032 0.12 0 0.224 0.022 0.314 0.065s0.158 0.102 0.208 0.178c0.050 0.075 0.075 0.161 0.075 0.258h-0.333c0-0.002 0-0.004 0-0.006 0-0.044-0.011-0.085-0.031-0.12l0.001 0.001c-0.020-0.037-0.051-0.067-0.088-0.086l-0.001-0.001c-0.040-0.020-0.088-0.031-0.138-0.031-0.004 0-0.008 0-0.012 0l0.001-0c-0.003-0-0.007-0-0.011-0-0.048 0-0.094 0.010-0.136 0.028l0.002-0.001c-0.036 0.015-0.066 0.039-0.087 0.070l-0 0.001c-0.018 0.027-0.029 0.060-0.029 0.096 0 0.001 0 0.002 0 0.003v-0c0 0.027 0.006 0.053 0.020 0.075 0.017 0.025 0.038 0.046 0.062 0.062l0.001 0c0.027 0.019 0.061 0.038 0.101 0.055s0.087 0.034 0.139 0.050c0.089 0.027 0.166 0.057 0.234 0.090s0.124 0.071 0.17 0.113c0.046 0.042 0.080 0.089 0.103 0.142s0.034 0.113 0.034 0.18c0 0.005 0 0.010 0 0.016 0 0.129-0.063 0.244-0.16 0.315l-0.001 0.001c-0.052 0.038-0.114 0.068-0.186 0.088s-0.153 0.030-0.242 0.030c-0.080 0-0.16-0.011-0.238-0.032-0.081-0.022-0.152-0.056-0.216-0.099l0.003 0.002c-0.063-0.043-0.114-0.098-0.151-0.163l-0.001-0.002c-0.038-0.067-0.057-0.146-0.057-0.238h0.336c0 0.051 0.008 0.093 0.023 0.128s0.037 0.063 0.065 0.084l0 0c0.029 0.021 0.064 0.038 0.101 0.046l0.002 0c0.040 0.010 0.084 0.014 0.132 0.014 0.004 0 0.008 0 0.012 0 0.047 0 0.092-0.009 0.133-0.025l-0.002 0.001c0.066-0.027 0.112-0.090 0.112-0.164 0-0.001 0-0.002-0-0.003v0z"></path>
</svg>
