<!-- Generated by IcoMoon.io -->
<svg version="1.1" xmlns="http://www.w3.org/2000/svg" width="32" height="32" viewBox="0 0 32 32">
<title>tagline</title>
<path fill="#8e8f99" d="M16.18 15.64c-0.13-0.168-0.209-0.381-0.209-0.613 0-0.023 0.001-0.045 0.002-0.068l-0 0.003v-0.983c0-0.301 0.068-0.53 0.205-0.687s0.372-0.235 0.705-0.234c0.313 0 0.535 0.067 0.667 0.2 0.143 0.17 0.213 0.378 0.197 0.588v0.232h-0.56v-0.234c0.002-0.077-0.003-0.153-0.016-0.229-0.009-0.055-0.038-0.103-0.079-0.136l-0-0c-0.050-0.034-0.112-0.054-0.179-0.054-0.009 0-0.017 0-0.025 0.001l0.001-0c-0.007-0.001-0.016-0.001-0.025-0.001-0.070 0-0.136 0.021-0.19 0.057l0.001-0.001c-0.046 0.037-0.079 0.089-0.092 0.148l-0 0.002c-0.014 0.067-0.022 0.145-0.022 0.224 0 0.007 0 0.014 0 0.020v-0.001 1.193c-0.001 0.013-0.002 0.029-0.002 0.045 0 0.106 0.027 0.206 0.075 0.293l-0.002-0.003c0.029 0.036 0.067 0.064 0.11 0.081l0.002 0.001c0.045 0.017 0.095 0.024 0.145 0.019 0.072 0.005 0.143-0.014 0.198-0.054 0.043-0.036 0.073-0.086 0.083-0.144l0-0.001c0.013-0.079 0.019-0.159 0.017-0.239v-0.242h0.56v0.221c0.001 0.017 0.002 0.037 0.002 0.057 0 0.213-0.074 0.408-0.197 0.562l0.001-0.002c-0.128 0.146-0.347 0.219-0.67 0.219s-0.565-0.078-0.704-0.24zM18.511 15.65c-0.141-0.153-0.212-0.376-0.212-0.671v-1.034c0-0.292 0.071-0.513 0.212-0.663s0.378-0.225 0.709-0.224c0.329 0 0.564 0.075 0.706 0.224 0.142 0.15 0.213 0.371 0.213 0.663v1.034c0 0.292-0.072 0.516-0.215 0.67s-0.378 0.231-0.704 0.231-0.567-0.078-0.709-0.23zM19.481 15.402c0.051-0.096 0.074-0.201 0.067-0.306v-1.266c0.001-0.010 0.001-0.022 0.001-0.033 0-0.097-0.025-0.189-0.069-0.269l0.001 0.003c-0.030-0.037-0.068-0.065-0.112-0.082l-0.002-0.001c-0.032-0.013-0.070-0.020-0.11-0.020-0.013 0-0.027 0.001-0.040 0.003l0.002-0c-0.011-0.001-0.024-0.002-0.037-0.002-0.040 0-0.078 0.007-0.113 0.021l0.002-0.001c-0.046 0.017-0.085 0.046-0.115 0.082l-0 0c-0.051 0.094-0.074 0.197-0.067 0.3v1.272c-0.007 0.105 0.016 0.21 0.067 0.306 0.033 0.032 0.073 0.058 0.118 0.076 0.043 0.017 0.092 0.027 0.144 0.027s0.101-0.010 0.146-0.028l-0.003 0.001c0.045-0.018 0.085-0.044 0.118-0.076v-0.006zM20.813 13.088h0.603l0.453 1.908 0.463-1.908h0.587l0.059 2.754h-0.434l-0.046-1.914-0.447 1.914h-0.348l-0.464-1.921-0.043 1.921h-0.438l0.054-2.754zM23.654 13.088h0.939c0.541 0 0.811 0.261 0.811 0.782 0 0.499-0.285 0.749-0.854 0.748h-0.32v1.224h-0.579l0.003-2.754zM24.456 14.265c0.057 0.006 0.115 0.002 0.17-0.014s0.106-0.040 0.148-0.074c0.054-0.073 0.086-0.164 0.086-0.263 0-0.017-0.001-0.033-0.003-0.050l0 0.002c0-0.009 0.001-0.021 0.001-0.032 0-0.078-0.010-0.153-0.030-0.224l0.001 0.006c-0.009-0.029-0.024-0.055-0.043-0.076l0 0c-0.020-0.023-0.045-0.041-0.072-0.055l-0.001-0.001c-0.067-0.028-0.145-0.045-0.227-0.045-0.011 0-0.022 0-0.033 0.001l0.002-0h-0.225v0.823h0.225zM26.24 13.088h0.622l0.639 2.754h-0.54l-0.126-0.635h-0.555l-0.13 0.635h-0.548l0.639-2.754zM26.772 14.888l-0.217-1.156-0.217 1.156h0.433zM28.016 13.088h0.406l0.776 1.571v-1.571h0.481v2.754h-0.386l-0.781-1.64v1.64h-0.497l0.001-2.754zM30.806 14.792l-0.645-1.7h0.544l0.394 1.092 0.37-1.092h0.532l-0.638 1.7v1.050h-0.556v-1.050zM17.075 17.046v0.144h-0.473v1.119h-0.198v-1.119h-0.476v-0.144h1.146zM18.557 18.309h-0.153c-0.001 0-0.003 0-0.004 0-0.014 0-0.028-0.005-0.039-0.012l0 0c-0.011-0.007-0.020-0.017-0.025-0.029l-0-0-0.137-0.3h-0.656l-0.137 0.3c-0.004 0.013-0.011 0.025-0.020 0.034v0c-0.011 0.008-0.025 0.012-0.039 0.012-0.001 0-0.003-0-0.004-0h-0.153l0.58-1.263h0.202l0.587 1.258zM17.598 17.841h0.547l-0.232-0.514c-0.015-0.032-0.030-0.072-0.042-0.113l-0.002-0.006c-0.008 0.024-0.015 0.047-0.022 0.067l-0.021 0.053-0.229 0.513zM19.556 18.186c0.036 0.002 0.073 0.002 0.109 0 0.031-0.003 0.062-0.008 0.093-0.015 0.033-0.007 0.061-0.015 0.088-0.025l-0.005 0.002c0.026-0.009 0.051-0.020 0.078-0.031v-0.284h-0.232c-0.001 0-0.002 0-0.003 0-0.005 0-0.010-0.001-0.015-0.002l0 0c-0.006-0.002-0.010-0.004-0.014-0.008l0 0c-0.004-0.003-0.007-0.006-0.009-0.010l-0-0c-0.002-0.003-0.003-0.007-0.003-0.012 0-0 0-0.001 0-0.001v0-0.097h0.45v0.484c-0.070 0.044-0.152 0.079-0.238 0.102l-0.006 0.001c-0.048 0.012-0.096 0.020-0.145 0.026-0.051 0.005-0.11 0.008-0.169 0.008-0 0-0 0-0 0v0c-0.002 0-0.004 0-0.007 0-0.102 0-0.2-0.017-0.292-0.049l0.006 0.002c-0.089-0.031-0.166-0.076-0.233-0.133l0.001 0.001c-0.062-0.055-0.113-0.122-0.148-0.196l-0.002-0.004c-0.034-0.075-0.053-0.162-0.053-0.254 0-0.003 0-0.006 0-0.009v0c-0-0.002-0-0.005-0-0.008 0-0.092 0.019-0.18 0.054-0.26l-0.002 0.004c0.033-0.075 0.084-0.143 0.15-0.2s0.145-0.101 0.232-0.131c0.099-0.032 0.205-0.048 0.311-0.047 0.054 0 0.108 0.003 0.161 0.011 0.047 0.007 0.093 0.017 0.138 0.032 0.041 0.013 0.080 0.030 0.116 0.050s0.069 0.042 0.101 0.066l-0.055 0.078c-0.005 0.007-0.011 0.013-0.019 0.017l-0 0c-0.008 0.004-0.017 0.007-0.026 0.007h-0c-0.013-0-0.026-0.004-0.036-0.010l0 0c-0.023-0.011-0.042-0.021-0.060-0.032l0.003 0.002c-0.022-0.012-0.048-0.024-0.074-0.033l-0.004-0.001c-0.029-0.011-0.065-0.020-0.102-0.027l-0.005-0.001c-0.042-0.007-0.090-0.011-0.139-0.011-0.003 0-0.005 0-0.008 0h0c-0.002-0-0.004-0-0.007-0-0.078 0-0.152 0.013-0.222 0.037l0.005-0.001c-0.066 0.023-0.123 0.057-0.171 0.1l0-0c-0.048 0.046-0.085 0.099-0.108 0.157-0.025 0.063-0.039 0.135-0.039 0.211s0.014 0.148 0.040 0.215l-0.001-0.004c0.026 0.059 0.065 0.113 0.116 0.159 0.048 0.043 0.106 0.077 0.169 0.1 0.074 0.022 0.152 0.030 0.229 0.025zM21.404 18.165h0.633v0.144h-0.827v-1.263h0.198l-0.005 1.119zM22.695 18.309h-0.198v-1.263h0.198v1.263zM23.432 17.052c0.012 0.006 0.022 0.014 0.031 0.023l0 0 0.847 0.952c-0.001-0.007-0.001-0.015-0.001-0.022s0-0.016 0.001-0.023l-0 0.001v-0.941h0.173v1.268h-0.1c-0.002 0-0.004 0-0.006 0-0.013 0-0.026-0.003-0.037-0.008l0.001 0c-0.012-0.006-0.023-0.014-0.031-0.024l-0-0-0.846-0.951v0.982h-0.166v-1.263h0.103c0.011 0 0.022 0.002 0.033 0.006zM25.942 17.046v0.139h-0.703v0.417h0.569v0.134h-0.569v0.431h0.702v0.139h-0.907v-1.26h0.907zM5.173 9.246l8.801 2.156v7.556l-8.801-2.155v-7.557zM4.608 8.602v8.568l9.928 2.433v-8.567l-9.928-2.434z"></path>
<path fill="#8e8f99" d="M9.93 23.58l-9.93-2.435v-8.567l9.93 2.434v8.569z"></path>
<path fill="#8e8f99" d="M4.773 9.149l8.686 2.129-3.694 3.188-8.687-2.13 3.695-3.187zM4.608 8.602l-4.608 3.976 9.93 2.434 4.607-3.976-9.928-2.435zM10.489 23.098l4.048-3.494-4.049-0.993v4.488z"></path>
</svg>
